<?xml version="1.0" encoding="utf-8"?>
<!-- Generator: Adobe Illustrator 15.0.2, SVG Export Plug-In . SVG Version: 6.00 Build 0)  -->
<!DOCTYPE svg PUBLIC "-//W3C//DTD SVG 1.1//EN" "http://www.w3.org/Graphics/SVG/1.1/DTD/svg11.dtd">
<svg version="1.1" id="Calque_1" xmlns="http://www.w3.org/2000/svg" xmlns:xlink="http://www.w3.org/1999/xlink" x="0px" y="0px"
	 width="36px" height="504px" viewBox="0 0 36 504" enable-background="new 0 0 36 504" xml:space="preserve">
<g>
	<path fill="#607D8B" d="M33.792,30.123c-0.142-0.37-0.345-0.668-0.613-0.896l-6.74-6.402c-0.477,0.72-1.016,1.387-1.625,1.995
		c-0.711,0.71-1.496,1.328-2.356,1.855l6.903,6.565c0.224,0.245,0.509,0.434,0.853,0.563c0.345,0.127,0.693,0.193,1.05,0.193
		c0.363,0,0.717-0.073,1.056-0.218c0.338-0.146,0.642-0.356,0.911-0.636c0.258-0.269,0.449-0.571,0.578-0.902
		c0.129-0.333,0.194-0.672,0.194-1.016C34.001,30.862,33.931,30.493,33.792,30.123z"/>
	<path fill="#2196F3" d="M15.808,2.002c-1.264,0-2.48,0.163-3.656,0.495c-1.176,0.328-2.277,0.795-3.303,1.395
		C7.828,4.496,6.892,5.215,6.054,6.053C5.216,6.889,4.495,7.821,3.892,8.845c-0.601,1.025-1.066,2.122-1.396,3.297
		c-0.331,1.175-0.495,2.4-0.495,3.677c0,1.273,0.164,2.5,0.495,3.673c0.329,1.174,0.796,2.271,1.396,3.297
		c0.604,1.024,1.324,1.959,2.162,2.806c0.656,0.655,1.363,1.242,2.133,1.755c0.135,0.085,0.268,0.174,0.404,0.257
		c0.022,0.015,0.047,0.028,0.067,0.041c0.562,0.338,1.147,0.641,1.767,0.908c0.043,0.016,0.084,0.037,0.131,0.054
		c0.508,0.213,1.033,0.396,1.578,0.55c0.01,0.003,0.021,0.005,0.034,0.007c0.095,0.027,0.188,0.052,0.282,0.076
		c1.078,0.271,2.197,0.405,3.357,0.405c1.904,0,3.699-0.362,5.383-1.092c1.679-0.728,3.146-1.714,4.396-2.961
		c1.253-1.252,2.242-2.719,2.97-4.396c0.729-1.678,1.09-3.472,1.09-5.377c0-1.903-0.359-3.7-1.09-5.393
		c-0.728-1.688-1.717-3.159-2.97-4.407c-0.362-0.36-0.743-0.7-1.141-1.02c-0.972-0.765-2.047-1.407-3.228-1.917
		C19.533,2.365,17.728,2.002,15.808,2.002z M24.722,12.047c0.511,1.183,0.767,2.438,0.767,3.772c0,1.329-0.257,2.582-0.767,3.758
		c-0.506,1.175-1.199,2.199-2.076,3.073c-0.871,0.872-1.896,1.565-3.072,2.072c-1.174,0.509-2.432,0.766-3.764,0.766
		c-1.334,0-2.588-0.256-3.765-0.766c-1.177-0.507-2.202-1.2-3.075-2.072c-0.875-0.874-1.566-1.898-2.072-3.073
		c-0.512-1.176-0.766-2.43-0.766-3.758c0-1.334,0.254-2.591,0.766-3.772c0.506-1.18,1.197-2.211,2.072-3.083
		c0.873-0.874,1.898-1.565,3.074-2.075c1.176-0.508,2.432-0.76,3.766-0.76c1.332,0,2.59,0.251,3.764,0.76
		c1.176,0.51,2.201,1.202,3.072,2.075C23.521,9.836,24.216,10.867,24.722,12.047z"/>
	<path fill="#607D8B" d="M33.792,66.123c-0.142-0.37-0.345-0.668-0.613-0.896l-6.74-6.402c-0.477,0.72-1.016,1.387-1.625,1.995
		c-0.711,0.71-1.496,1.328-2.356,1.855l6.903,6.565c0.224,0.245,0.509,0.434,0.853,0.563c0.345,0.127,0.693,0.193,1.05,0.193
		c0.363,0,0.717-0.073,1.056-0.218c0.338-0.146,0.642-0.356,0.911-0.636c0.258-0.269,0.449-0.571,0.578-0.902
		c0.129-0.333,0.194-0.672,0.194-1.016C34.001,66.862,33.931,66.493,33.792,66.123z"/>
	<path fill="#2196F3" d="M15.81,38.824c-1.188,0-2.334,0.152-3.44,0.466c-1.104,0.309-2.142,0.748-3.104,1.312
		c-0.961,0.568-1.842,1.244-2.629,2.033c-0.789,0.787-1.467,1.663-2.033,2.626c-0.565,0.964-1.004,1.996-1.313,3.102
		c-0.312,1.104-0.466,2.258-0.466,3.458c0,1.197,0.154,2.352,0.466,3.454c0.31,1.104,0.749,2.138,1.313,3.102
		c0.566,0.965,1.244,1.843,2.033,2.639c0.616,0.616,1.281,1.168,2.006,1.65c0.125,0.08,0.25,0.164,0.379,0.242
		c0.021,0.014,0.045,0.025,0.063,0.038c0.528,0.317,1.079,0.603,1.662,0.854c0.04,0.015,0.078,0.035,0.122,0.05
		c0.479,0.2,0.973,0.371,1.484,0.518c0.009,0.003,0.021,0.005,0.033,0.007c0.088,0.025,0.176,0.049,0.266,0.07
		c1.014,0.255,2.066,0.383,3.158,0.383c1.791,0,3.479-0.343,5.063-1.027c1.579-0.684,2.959-1.612,4.135-2.785
		c1.178-1.178,2.108-2.557,2.793-4.135c0.687-1.577,1.023-3.265,1.023-5.056s-0.338-3.481-1.023-5.072
		c-0.685-1.588-1.615-2.971-2.793-4.146c-0.342-0.34-0.701-0.657-1.074-0.959c-0.914-0.719-1.924-1.323-3.035-1.803
		C19.312,39.165,17.614,38.824,15.81,38.824z M24.192,48.271c0.479,1.112,0.72,2.294,0.72,3.549c0,1.25-0.239,2.429-0.72,3.534
		c-0.477,1.105-1.129,2.069-1.953,2.892c-0.82,0.819-1.785,1.472-2.891,1.948c-1.104,0.479-2.287,0.721-3.541,0.721
		s-2.434-0.241-3.539-0.721c-1.106-0.477-2.071-1.128-2.894-1.948c-0.823-0.822-1.473-1.786-1.948-2.892
		c-0.481-1.104-0.72-2.284-0.72-3.534c0-1.255,0.238-2.437,0.72-3.549c0.476-1.108,1.125-2.079,1.948-2.898
		c0.822-0.822,1.787-1.473,2.892-1.952c1.106-0.479,2.287-0.715,3.541-0.715s2.437,0.236,3.541,0.715
		c1.105,0.479,2.069,1.13,2.891,1.952C23.063,46.192,23.716,47.162,24.192,48.271z"/>
	<path fill="#607D8B" d="M33.792,102.123c-0.142-0.37-0.345-0.668-0.613-0.896l-6.74-6.402c-0.477,0.72-1.016,1.387-1.625,1.995
		c-0.711,0.71-1.496,1.328-2.356,1.855l6.903,6.565c0.224,0.245,0.509,0.434,0.853,0.563c0.345,0.127,0.693,0.193,1.05,0.193
		c0.363,0,0.717-0.073,1.056-0.218c0.338-0.146,0.642-0.356,0.911-0.636c0.258-0.269,0.449-0.571,0.578-0.902
		c0.129-0.333,0.194-0.672,0.194-1.016C34.001,102.862,33.931,102.493,33.792,102.123z"/>
	<path fill="#2196F3" d="M15.81,75.324c-1.143,0-2.243,0.146-3.308,0.447c-1.063,0.297-2.059,0.72-2.985,1.262
		c-0.924,0.546-1.771,1.195-2.527,1.954c-0.76,0.757-1.41,1.6-1.955,2.525c-0.543,0.927-0.965,1.919-1.264,2.982
		c-0.299,1.062-0.447,2.17-0.447,3.324c0,1.151,0.148,2.261,0.447,3.321c0.299,1.063,0.721,2.055,1.264,2.982
		c0.545,0.928,1.195,1.771,1.955,2.538c0.593,0.593,1.232,1.123,1.929,1.587c0.121,0.077,0.241,0.157,0.365,0.231
		c0.021,0.014,0.043,0.025,0.062,0.037c0.508,0.305,1.039,0.579,1.599,0.821c0.039,0.015,0.075,0.033,0.116,0.048
		c0.459,0.192,0.936,0.357,1.428,0.497c0.009,0.003,0.021,0.005,0.031,0.007c0.086,0.025,0.17,0.047,0.256,0.068
		c0.975,0.245,1.986,0.367,3.035,0.367c1.724,0,3.347-0.329,4.869-0.987c1.518-0.658,2.846-1.55,3.975-2.678
		c1.132-1.134,2.027-2.458,2.686-3.977c0.659-1.517,0.984-3.139,0.984-4.862c0-1.722-0.325-3.347-0.984-4.877
		c-0.658-1.526-1.554-2.856-2.686-3.985c-0.328-0.327-0.674-0.632-1.032-0.922c-0.878-0.691-1.851-1.273-2.918-1.733
		C19.179,75.652,17.546,75.324,15.81,75.324z M23.87,84.408c0.461,1.068,0.691,2.205,0.691,3.412c0,1.202-0.23,2.335-0.691,3.398
		c-0.458,1.063-1.085,1.989-1.877,2.779c-0.789,0.789-1.716,1.416-2.779,1.874c-1.063,0.46-2.199,0.691-3.404,0.691
		c-1.207,0-2.34-0.231-3.403-0.691c-1.063-0.458-1.991-1.085-2.782-1.874c-0.791-0.79-1.417-1.718-1.874-2.779
		c-0.463-1.063-0.69-2.196-0.69-3.398c0-1.207,0.229-2.343,0.69-3.412c0.458-1.067,1.083-1.999,1.874-2.788
		c0.791-0.79,1.719-1.416,2.781-1.876c1.063-0.459,2.197-0.688,3.404-0.688c1.205,0,2.343,0.229,3.404,0.688
		c1.063,0.461,1.99,1.086,2.779,1.876C22.785,82.409,23.412,83.341,23.87,84.408z"/>
	<path fill="#607D8B" d="M33.792,138.123c-0.142-0.37-0.345-0.669-0.613-0.896l-6.74-6.403c-0.477,0.721-1.016,1.387-1.625,1.995
		c-0.711,0.711-1.496,1.328-2.356,1.855l6.903,6.563c0.224,0.246,0.509,0.435,0.853,0.564c0.345,0.127,0.693,0.192,1.05,0.192
		c0.363,0,0.717-0.073,1.056-0.219c0.338-0.146,0.642-0.355,0.911-0.635c0.258-0.27,0.449-0.571,0.578-0.903
		c0.129-0.333,0.194-0.671,0.194-1.015C34.001,138.862,33.931,138.492,33.792,138.123z"/>
	<path fill="#2196F3" d="M15.81,111.824c-1.096,0-2.153,0.142-3.174,0.431c-1.021,0.284-1.978,0.688-2.867,1.21
		c-0.887,0.524-1.699,1.147-2.426,1.876c-0.729,0.726-1.354,1.534-1.877,2.425s-0.928,1.842-1.214,2.861
		c-0.286,1.021-0.43,2.084-0.43,3.192c0,1.106,0.144,2.171,0.43,3.188c0.286,1.02,0.691,1.973,1.214,2.862s1.147,1.698,1.877,2.437
		c0.568,0.568,1.184,1.078,1.852,1.522c0.115,0.074,0.23,0.151,0.35,0.225c0.02,0.011,0.041,0.023,0.061,0.035
		c0.486,0.293,0.996,0.555,1.533,0.786c0.037,0.016,0.072,0.033,0.112,0.047c0.441,0.187,0.897,0.344,1.37,0.478
		c0.01,0.004,0.021,0.005,0.031,0.007c0.082,0.024,0.164,0.046,0.244,0.066c0.937,0.233,1.908,0.353,2.916,0.353
		c1.654,0,3.211-0.316,4.673-0.949c1.458-0.631,2.731-1.486,3.815-2.57c1.088-1.087,1.946-2.359,2.577-3.815
		c0.634-1.455,0.946-3.014,0.946-4.668c0-1.651-0.313-3.213-0.946-4.681c-0.631-1.468-1.489-2.744-2.577-3.828
		c-0.314-0.313-0.646-0.605-0.99-0.885c-0.844-0.663-1.776-1.222-2.803-1.663C19.044,112.139,17.476,111.824,15.81,111.824z
		 M23.55,120.545c0.441,1.024,0.664,2.119,0.664,3.274c0,1.153-0.223,2.242-0.664,3.263c-0.44,1.02-1.043,1.91-1.803,2.668
		c-0.758,0.759-1.648,1.358-2.669,1.799c-1.019,0.443-2.11,0.665-3.267,0.665c-1.158,0-2.248-0.222-3.269-0.665
		c-1.021-0.439-1.911-1.04-2.67-1.799c-0.759-0.758-1.36-1.648-1.799-2.668c-0.444-1.021-0.664-2.108-0.664-3.263
		c0-1.155,0.22-2.25,0.664-3.274c0.438-1.023,1.04-1.919,1.799-2.678s1.649-1.358,2.669-1.802c1.021-0.44,2.11-0.658,3.27-0.658
		c1.156,0,2.248,0.218,3.267,0.658c1.021,0.442,1.911,1.043,2.669,1.802C22.507,118.626,23.108,119.522,23.55,120.545z"/>
	<path fill="#607D8B" d="M33.792,174.122c-0.142-0.369-0.345-0.669-0.613-0.895l-6.74-6.404c-0.477,0.722-1.016,1.388-1.625,1.996
		c-0.711,0.711-1.496,1.328-2.356,1.855l6.903,6.563c0.224,0.246,0.509,0.435,0.853,0.564c0.345,0.127,0.693,0.191,1.05,0.191
		c0.363,0,0.717-0.072,1.056-0.218c0.338-0.146,0.642-0.355,0.911-0.635c0.258-0.271,0.449-0.571,0.578-0.903
		c0.129-0.333,0.194-0.671,0.194-1.015C34.001,174.862,33.931,174.491,33.792,174.122z"/>
	<path fill="#2196F3" d="M15.812,148.324c-1.051,0-2.064,0.136-3.043,0.412c-0.979,0.272-1.895,0.66-2.746,1.159
		c-0.852,0.504-1.629,1.102-2.326,1.798c-0.698,0.695-1.297,1.471-1.799,2.324c-0.5,0.854-0.889,1.765-1.163,2.741
		c-0.275,0.979-0.412,1.998-0.412,3.061c0,1.062,0.137,2.081,0.412,3.057c0.274,0.978,0.661,1.891,1.163,2.742
		c0.5,0.854,1.101,1.629,1.799,2.335c0.545,0.545,1.134,1.033,1.773,1.459c0.111,0.072,0.223,0.146,0.336,0.217
		c0.019,0.01,0.039,0.021,0.057,0.032c0.466,0.281,0.955,0.531,1.47,0.753c0.036,0.017,0.069,0.032,0.106,0.046
		c0.424,0.18,0.861,0.329,1.313,0.458c0.009,0.004,0.021,0.005,0.03,0.007c0.078,0.022,0.156,0.043,0.234,0.063
		c0.896,0.225,1.828,0.337,2.793,0.337c1.586,0,3.08-0.304,4.479-0.91c1.396-0.604,2.618-1.424,3.658-2.463
		c1.042-1.041,1.865-2.261,2.469-3.655c0.607-1.396,0.907-2.889,0.907-4.475c0-1.583-0.3-3.079-0.907-4.484
		c-0.604-1.407-1.428-2.63-2.469-3.669c-0.303-0.3-0.619-0.581-0.95-0.849c-0.808-0.636-1.702-1.171-2.685-1.594
		C18.909,148.627,17.408,148.324,15.812,148.324z M23.228,156.682c0.424,0.981,0.636,2.031,0.636,3.139
		c0,1.105-0.212,2.149-0.636,3.126c-0.422,0.979-1,1.831-1.728,2.558c-0.728,0.728-1.58,1.303-2.558,1.724
		c-0.977,0.426-2.022,0.638-3.131,0.638c-1.11,0-2.153-0.212-3.131-0.638c-0.979-0.421-1.832-0.996-2.56-1.724
		c-0.728-0.727-1.303-1.579-1.726-2.558c-0.426-0.977-0.635-2.021-0.635-3.126c0-1.106,0.209-2.156,0.635-3.139
		c0.422-0.98,0.998-1.839,1.726-2.566c0.728-0.726,1.58-1.302,2.558-1.726c0.979-0.423,2.022-0.632,3.133-0.632
		c1.107,0,2.154,0.209,3.131,0.632c0.979,0.424,1.832,1,2.558,1.726C22.228,154.843,22.806,155.7,23.228,156.682z"/>
	<path fill="#607D8B" d="M33.792,210.122c-0.142-0.369-0.345-0.669-0.613-0.895l-6.74-6.404c-0.477,0.722-1.016,1.388-1.625,1.996
		c-0.711,0.711-1.496,1.328-2.356,1.855l6.903,6.563c0.224,0.246,0.509,0.435,0.853,0.564c0.345,0.127,0.693,0.191,1.05,0.191
		c0.363,0,0.717-0.072,1.056-0.218c0.338-0.146,0.642-0.355,0.911-0.635c0.258-0.271,0.449-0.571,0.578-0.903
		c0.129-0.333,0.194-0.671,0.194-1.015C34.001,210.862,33.931,210.491,33.792,210.122z"/>
	<path fill="#2196F3" d="M15.812,184.823c-1.006,0-1.976,0.13-2.911,0.396c-0.935,0.261-1.812,0.631-2.626,1.107
		c-0.814,0.482-1.559,1.054-2.225,1.721c-0.668,0.665-1.242,1.406-1.722,2.224c-0.479,0.816-0.851,1.688-1.112,2.621
		c-0.263,0.938-0.394,1.912-0.394,2.928s0.131,1.991,0.394,2.923c0.264,0.937,0.633,1.81,1.112,2.624
		c0.479,0.815,1.054,1.56,1.722,2.233c0.521,0.521,1.084,0.988,1.696,1.396c0.106,0.069,0.212,0.142,0.321,0.207
		c0.018,0.01,0.037,0.021,0.055,0.031c0.446,0.271,0.913,0.508,1.406,0.721c0.033,0.016,0.066,0.03,0.104,0.043
		c0.404,0.173,0.822,0.315,1.254,0.438c0.01,0.004,0.021,0.005,0.029,0.007c0.075,0.022,0.15,0.041,0.225,0.062
		c0.857,0.214,1.748,0.321,2.672,0.321c1.517,0,2.945-0.29,4.283-0.87c1.336-0.578,2.504-1.361,3.498-2.355
		c0.996-0.995,1.783-2.162,2.361-3.497c0.581-1.335,0.868-2.762,0.868-4.279c0-1.514-0.287-2.944-0.868-4.29
		c-0.578-1.347-1.365-2.516-2.361-3.51c-0.289-0.286-0.592-0.556-0.908-0.811c-0.773-0.608-1.629-1.12-2.568-1.524
		C18.775,185.115,17.339,184.823,15.812,184.823z M22.905,192.819c0.404,0.939,0.607,1.943,0.607,3.002s-0.203,2.058-0.607,2.99
		c-0.404,0.936-0.955,1.752-1.652,2.445c-0.695,0.695-1.511,1.246-2.447,1.647c-0.934,0.408-1.935,0.61-2.994,0.61
		c-1.063,0-2.06-0.202-2.995-0.61c-0.937-0.401-1.753-0.952-2.448-1.647c-0.695-0.693-1.247-1.511-1.65-2.445
		c-0.406-0.934-0.607-1.933-0.607-2.99c0-1.059,0.201-2.063,0.607-3.002c0.403-0.938,0.955-1.759,1.65-2.455
		c0.695-0.692,1.512-1.245,2.447-1.649s1.935-0.604,2.996-0.604c1.06,0,2.061,0.2,2.994,0.604c0.937,0.404,1.752,0.957,2.447,1.649
		C21.95,191.06,22.501,191.881,22.905,192.819z"/>
	<path fill="#607D8B" d="M33.792,246.122c-0.142-0.369-0.345-0.669-0.613-0.895l-6.74-6.404c-0.477,0.722-1.016,1.388-1.625,1.996
		c-0.711,0.711-1.496,1.328-2.356,1.855l6.903,6.563c0.224,0.246,0.509,0.435,0.853,0.564c0.345,0.127,0.693,0.191,1.05,0.191
		c0.363,0,0.717-0.072,1.056-0.218c0.338-0.146,0.642-0.355,0.911-0.635c0.258-0.271,0.449-0.571,0.578-0.903
		c0.129-0.333,0.194-0.671,0.194-1.015C34.001,246.862,33.931,246.491,33.792,246.122z"/>
	<path fill="#2196F3" d="M15.812,221.323c-0.959,0-1.885,0.124-2.777,0.378c-0.893,0.247-1.729,0.603-2.507,1.059
		c-0.778,0.461-1.488,1.005-2.124,1.642c-0.639,0.635-1.186,1.342-1.643,2.121c-0.459,0.779-0.812,1.612-1.063,2.502
		c-0.25,0.896-0.375,1.825-0.375,2.796c0,0.969,0.125,1.9,0.375,2.79c0.251,0.895,0.604,1.728,1.063,2.505
		c0.457,0.778,1.004,1.486,1.643,2.132c0.498,0.498,1.035,0.943,1.619,1.332c0.103,0.066,0.203,0.136,0.307,0.196
		c0.018,0.01,0.035,0.021,0.053,0.031c0.424,0.256,0.871,0.484,1.342,0.687c0.033,0.017,0.063,0.03,0.098,0.041
		c0.387,0.164,0.786,0.304,1.197,0.419c0.01,0.005,0.02,0.006,0.029,0.008c0.07,0.021,0.143,0.039,0.213,0.058
		c0.818,0.204,1.668,0.308,2.551,0.308c1.447,0,2.811-0.277,4.088-0.832c1.275-0.552,2.391-1.299,3.34-2.248
		c0.951-0.95,1.702-2.063,2.253-3.338c0.556-1.273,0.829-2.638,0.829-4.085c0-1.443-0.273-2.812-0.829-4.095
		c-0.552-1.287-1.304-2.401-2.253-3.351c-0.275-0.274-0.564-0.53-0.868-0.773c-0.737-0.581-1.554-1.069-2.452-1.455
		C18.642,221.601,17.271,221.323,15.812,221.323z M22.583,228.954c0.387,0.896,0.581,1.854,0.581,2.865
		c0,1.01-0.194,1.962-0.581,2.854c-0.386,0.892-0.912,1.671-1.576,2.334c-0.664,0.665-1.443,1.188-2.336,1.571
		c-0.893,0.391-1.848,0.584-2.859,0.584s-1.965-0.193-2.858-0.584c-0.894-0.383-1.673-0.906-2.336-1.571
		c-0.664-0.663-1.19-1.442-1.575-2.334c-0.389-0.894-0.58-1.846-0.58-2.854c0-1.012,0.191-1.969,0.58-2.865
		c0.385-0.895,0.911-1.679,1.575-2.344c0.664-0.663,1.442-1.188,2.335-1.575c0.895-0.386,1.848-0.576,2.859-0.576
		c1.013,0,1.968,0.19,2.859,0.576c0.893,0.388,1.672,0.912,2.336,1.575C21.673,227.277,22.197,228.061,22.583,228.954z"/>
	<path fill="#607D8B" d="M33.792,282.122c-0.142-0.369-0.345-0.669-0.613-0.895l-6.74-6.404c-0.477,0.722-1.016,1.388-1.625,1.996
		c-0.711,0.711-1.496,1.328-2.356,1.855l6.903,6.563c0.224,0.246,0.509,0.435,0.853,0.564c0.345,0.127,0.693,0.191,1.05,0.191
		c0.363,0,0.717-0.072,1.056-0.218c0.338-0.146,0.642-0.355,0.911-0.635c0.258-0.271,0.449-0.571,0.578-0.903
		c0.129-0.333,0.194-0.671,0.194-1.015C34.001,282.862,33.931,282.491,33.792,282.122z"/>
	<path fill="#2196F3" d="M15.812,257.823c-0.912,0-1.795,0.118-2.646,0.36c-0.85,0.235-1.646,0.572-2.387,1.007
		c-0.741,0.439-1.417,0.957-2.022,1.563c-0.606,0.604-1.129,1.277-1.563,2.021c-0.437,0.742-0.772,1.535-1.013,2.383
		c-0.237,0.854-0.356,1.738-0.356,2.662c0,0.923,0.119,1.812,0.356,2.657c0.24,0.852,0.576,1.645,1.013,2.386
		s0.957,1.416,1.563,2.03c0.475,0.475,0.986,0.897,1.543,1.269c0.098,0.063,0.192,0.129,0.293,0.188
		c0.016,0.009,0.032,0.02,0.049,0.029c0.406,0.243,0.83,0.461,1.279,0.653c0.03,0.016,0.059,0.028,0.092,0.039
		c0.369,0.156,0.75,0.288,1.142,0.398c0.009,0.004,0.019,0.005,0.026,0.007c0.068,0.021,0.137,0.037,0.205,0.055
		c0.778,0.194,1.588,0.293,2.428,0.293c1.379,0,2.677-0.265,3.894-0.792c1.216-0.525,2.277-1.236,3.183-2.142
		c0.904-0.905,1.621-1.965,2.146-3.179c0.528-1.215,0.79-2.513,0.79-3.892c0-1.375-0.262-2.678-0.79-3.898
		c-0.524-1.227-1.239-2.287-2.146-3.191c-0.264-0.261-0.539-0.505-0.828-0.736c-0.702-0.554-1.479-1.019-2.334-1.386
		C18.507,258.088,17.201,257.823,15.812,257.823z M22.263,265.092c0.367,0.854,0.553,1.766,0.553,2.729
		c0,0.962-0.186,1.869-0.553,2.719c-0.369,0.851-0.869,1.593-1.502,2.224c-0.633,0.634-1.375,1.133-2.226,1.498
		c-0.849,0.371-1.759,0.556-2.722,0.556c-0.965,0-1.872-0.185-2.723-0.556c-0.853-0.365-1.594-0.864-2.226-1.498
		c-0.632-0.631-1.134-1.373-1.5-2.224c-0.37-0.85-0.552-1.757-0.552-2.719c0-0.963,0.182-1.875,0.552-2.729
		c0.366-0.853,0.868-1.6,1.5-2.232c0.632-0.631,1.374-1.132,2.224-1.5c0.852-0.367,1.76-0.55,2.725-0.55
		c0.963,0,1.873,0.183,2.722,0.55c0.851,0.368,1.593,0.869,2.226,1.5C21.394,263.492,21.894,264.24,22.263,265.092z"/>
	<path fill="#607D8B" d="M33.792,318.122c-0.142-0.369-0.345-0.669-0.613-0.895l-6.74-6.404c-0.477,0.722-1.016,1.388-1.625,1.996
		c-0.711,0.711-1.496,1.328-2.356,1.855l6.903,6.563c0.224,0.246,0.509,0.435,0.853,0.564c0.345,0.127,0.693,0.191,1.05,0.191
		c0.363,0,0.717-0.072,1.056-0.218c0.338-0.146,0.642-0.355,0.911-0.635c0.258-0.271,0.449-0.571,0.578-0.903
		c0.129-0.333,0.194-0.671,0.194-1.015C34.001,318.862,33.931,318.491,33.792,318.122z"/>
	<path fill="#2196F3" d="M15.812,293.323c-0.959,0-1.885,0.124-2.777,0.378c-0.893,0.248-1.729,0.603-2.507,1.059
		c-0.778,0.461-1.488,1.005-2.124,1.642c-0.639,0.635-1.186,1.343-1.643,2.122c-0.459,0.779-0.812,1.611-1.063,2.502
		c-0.25,0.896-0.375,1.825-0.375,2.795c0,0.969,0.125,1.9,0.375,2.79c0.251,0.895,0.604,1.728,1.063,2.505
		c0.457,0.778,1.004,1.487,1.643,2.133c0.498,0.497,1.035,0.942,1.619,1.331c0.103,0.066,0.203,0.136,0.307,0.197
		c0.018,0.009,0.035,0.021,0.053,0.03c0.424,0.257,0.871,0.484,1.342,0.688c0.033,0.016,0.063,0.029,0.098,0.041
		c0.387,0.164,0.786,0.303,1.197,0.418c0.01,0.004,0.02,0.006,0.029,0.008c0.07,0.021,0.143,0.039,0.213,0.058
		c0.818,0.204,1.668,0.308,2.551,0.308c1.447,0,2.811-0.276,4.088-0.831c1.275-0.553,2.391-1.3,3.34-2.249
		c0.951-0.949,1.702-2.063,2.253-3.338c0.556-1.273,0.829-2.637,0.829-4.085c0-1.443-0.273-2.812-0.829-4.095
		c-0.552-1.286-1.304-2.401-2.253-3.351c-0.275-0.273-0.564-0.53-0.868-0.773c-0.737-0.581-1.554-1.069-2.452-1.455
		C18.642,293.602,17.271,293.323,15.812,293.323z M22.583,300.954c0.387,0.896,0.581,1.854,0.581,2.865
		c0,1.01-0.194,1.963-0.581,2.854c-0.386,0.893-0.912,1.672-1.576,2.334c-0.664,0.665-1.443,1.188-2.336,1.572
		c-0.893,0.391-1.848,0.583-2.859,0.583s-1.965-0.192-2.858-0.583c-0.894-0.384-1.673-0.907-2.336-1.572
		c-0.664-0.662-1.19-1.441-1.575-2.334c-0.389-0.893-0.58-1.846-0.58-2.854c0-1.011,0.191-1.969,0.58-2.865
		c0.385-0.895,0.911-1.679,1.575-2.344c0.664-0.662,1.442-1.188,2.335-1.575c0.895-0.386,1.848-0.576,2.859-0.576
		c1.013,0,1.968,0.19,2.859,0.576c0.893,0.388,1.672,0.913,2.336,1.575C21.673,299.277,22.197,300.061,22.583,300.954z"/>
	<path fill="#607D8B" d="M33.792,354.122c-0.142-0.369-0.345-0.669-0.613-0.895l-6.74-6.404c-0.477,0.722-1.016,1.388-1.625,1.996
		c-0.711,0.711-1.496,1.328-2.356,1.855l6.903,6.563c0.224,0.246,0.509,0.435,0.853,0.564c0.345,0.127,0.693,0.191,1.05,0.191
		c0.363,0,0.717-0.072,1.056-0.218c0.338-0.146,0.642-0.355,0.911-0.635c0.258-0.271,0.449-0.571,0.578-0.903
		c0.129-0.333,0.194-0.671,0.194-1.015C34.001,354.862,33.931,354.491,33.792,354.122z"/>
	<path fill="#2196F3" d="M15.812,328.823c-1.006,0-1.976,0.13-2.911,0.396c-0.935,0.261-1.812,0.631-2.626,1.107
		c-0.814,0.482-1.559,1.054-2.225,1.721c-0.668,0.665-1.242,1.406-1.722,2.224c-0.479,0.816-0.851,1.688-1.112,2.621
		c-0.263,0.938-0.394,1.912-0.394,2.928s0.131,1.991,0.394,2.923c0.264,0.937,0.633,1.81,1.112,2.624
		c0.479,0.815,1.054,1.56,1.722,2.233c0.521,0.521,1.084,0.988,1.696,1.396c0.106,0.069,0.212,0.142,0.321,0.207
		c0.018,0.01,0.037,0.021,0.055,0.031c0.446,0.271,0.913,0.508,1.406,0.721c0.033,0.016,0.066,0.03,0.104,0.043
		c0.404,0.173,0.822,0.315,1.254,0.438c0.01,0.004,0.021,0.005,0.029,0.007c0.075,0.022,0.15,0.041,0.225,0.062
		c0.857,0.214,1.748,0.321,2.672,0.321c1.517,0,2.945-0.29,4.283-0.87c1.336-0.578,2.504-1.361,3.498-2.355
		c0.996-0.995,1.783-2.163,2.361-3.497c0.581-1.335,0.868-2.762,0.868-4.279c0-1.514-0.287-2.944-0.868-4.29
		c-0.578-1.347-1.365-2.516-2.361-3.51c-0.289-0.286-0.592-0.556-0.908-0.811c-0.773-0.608-1.629-1.12-2.568-1.524
		C18.775,329.115,17.339,328.823,15.812,328.823z M22.905,336.819c0.404,0.939,0.607,1.943,0.607,3.002s-0.203,2.058-0.607,2.99
		c-0.404,0.936-0.955,1.752-1.652,2.445c-0.695,0.695-1.511,1.246-2.447,1.647c-0.934,0.408-1.935,0.61-2.994,0.61
		c-1.063,0-2.06-0.202-2.995-0.61c-0.937-0.401-1.753-0.952-2.448-1.647c-0.695-0.693-1.247-1.511-1.65-2.445
		c-0.406-0.934-0.607-1.933-0.607-2.99c0-1.059,0.201-2.063,0.607-3.002c0.403-0.938,0.955-1.759,1.65-2.455
		c0.695-0.692,1.512-1.245,2.447-1.649s1.935-0.604,2.996-0.604c1.06,0,2.061,0.2,2.994,0.604c0.937,0.404,1.752,0.957,2.447,1.649
		C21.95,335.06,22.501,335.881,22.905,336.819z"/>
	<path fill="#607D8B" d="M33.792,390.122c-0.142-0.369-0.345-0.669-0.613-0.895l-6.74-6.404c-0.477,0.722-1.016,1.388-1.625,1.996
		c-0.711,0.711-1.496,1.328-2.356,1.855l6.903,6.563c0.224,0.246,0.509,0.435,0.853,0.564c0.345,0.127,0.693,0.191,1.05,0.191
		c0.363,0,0.717-0.072,1.056-0.218c0.338-0.146,0.642-0.355,0.911-0.635c0.258-0.271,0.449-0.571,0.578-0.903
		c0.129-0.333,0.194-0.671,0.194-1.015C34.001,390.862,33.931,390.491,33.792,390.122z"/>
	<path fill="#2196F3" d="M15.812,364.323c-1.051,0-2.064,0.137-3.043,0.413c-0.979,0.272-1.895,0.66-2.746,1.159
		c-0.852,0.504-1.629,1.101-2.326,1.798c-0.698,0.695-1.297,1.471-1.799,2.324c-0.5,0.854-0.889,1.765-1.163,2.741
		c-0.275,0.979-0.412,1.998-0.412,3.061c0,1.062,0.137,2.081,0.412,3.056c0.274,0.979,0.661,1.892,1.163,2.743
		c0.5,0.854,1.101,1.629,1.799,2.335c0.545,0.545,1.134,1.033,1.773,1.459c0.111,0.072,0.223,0.146,0.336,0.217
		c0.019,0.01,0.039,0.021,0.057,0.032c0.466,0.281,0.955,0.531,1.47,0.755c0.036,0.015,0.069,0.03,0.106,0.045
		c0.424,0.179,0.861,0.328,1.313,0.457c0.009,0.004,0.021,0.005,0.03,0.007c0.078,0.022,0.156,0.043,0.234,0.063
		c0.896,0.225,1.828,0.337,2.793,0.337c1.586,0,3.08-0.304,4.479-0.909c1.396-0.604,2.618-1.425,3.658-2.464
		c1.042-1.041,1.865-2.261,2.469-3.655c0.607-1.396,0.907-2.889,0.907-4.475c0-1.583-0.3-3.079-0.907-4.484
		c-0.604-1.407-1.428-2.631-2.469-3.669c-0.303-0.301-0.619-0.581-0.95-0.849c-0.808-0.636-1.702-1.171-2.685-1.594
		C18.909,364.627,17.408,364.323,15.812,364.323z M23.228,372.682c0.424,0.981,0.636,2.031,0.636,3.139
		c0,1.105-0.212,2.149-0.636,3.126c-0.422,0.979-1,1.831-1.728,2.558c-0.728,0.728-1.58,1.303-2.558,1.724
		c-0.977,0.426-2.022,0.638-3.131,0.638c-1.11,0-2.153-0.212-3.131-0.638c-0.979-0.421-1.832-0.996-2.56-1.724
		c-0.728-0.727-1.303-1.579-1.726-2.558c-0.426-0.977-0.635-2.021-0.635-3.126c0-1.106,0.209-2.156,0.635-3.139
		c0.422-0.98,0.998-1.839,1.726-2.566c0.728-0.726,1.58-1.302,2.558-1.726c0.979-0.423,2.022-0.632,3.133-0.632
		c1.107,0,2.154,0.209,3.131,0.632c0.979,0.424,1.832,1,2.558,1.726C22.228,370.843,22.806,371.7,23.228,372.682z"/>
	<path fill="#607D8B" d="M33.792,426.122c-0.142-0.369-0.345-0.669-0.613-0.895l-6.74-6.404c-0.477,0.722-1.016,1.388-1.625,1.996
		c-0.711,0.711-1.496,1.328-2.356,1.855l6.903,6.563c0.224,0.246,0.509,0.435,0.853,0.564c0.345,0.127,0.693,0.191,1.05,0.191
		c0.363,0,0.717-0.072,1.056-0.218c0.338-0.146,0.642-0.355,0.911-0.635c0.258-0.271,0.449-0.571,0.578-0.903
		c0.129-0.333,0.194-0.671,0.194-1.015C34.001,426.862,33.931,426.491,33.792,426.122z"/>
	<path fill="#2196F3" d="M15.81,399.823c-1.096,0-2.153,0.143-3.174,0.432c-1.021,0.283-1.978,0.688-2.867,1.21
		c-0.887,0.524-1.699,1.147-2.426,1.876c-0.729,0.726-1.354,1.534-1.877,2.425s-0.928,1.842-1.214,2.861
		c-0.286,1.021-0.43,2.085-0.43,3.192c0,1.106,0.144,2.171,0.43,3.188c0.286,1.02,0.691,1.973,1.214,2.861
		c0.522,0.891,1.147,1.7,1.877,2.438c0.568,0.568,1.184,1.078,1.852,1.521c0.115,0.075,0.23,0.152,0.35,0.226
		c0.02,0.011,0.041,0.022,0.061,0.035c0.486,0.293,0.996,0.555,1.533,0.785c0.037,0.017,0.072,0.033,0.112,0.048
		c0.441,0.187,0.897,0.344,1.37,0.478c0.01,0.004,0.021,0.005,0.031,0.007c0.082,0.024,0.164,0.045,0.244,0.066
		c0.937,0.232,1.908,0.352,2.916,0.352c1.654,0,3.211-0.315,4.673-0.949c1.458-0.631,2.731-1.485,3.815-2.569
		c1.088-1.087,1.946-2.36,2.577-3.815c0.634-1.456,0.946-3.014,0.946-4.668c0-1.651-0.313-3.213-0.946-4.681
		c-0.631-1.468-1.489-2.744-2.577-3.828c-0.314-0.313-0.646-0.606-0.99-0.885c-0.844-0.663-1.776-1.223-2.803-1.663
		C19.044,400.14,17.476,399.823,15.81,399.823z M23.55,408.545c0.441,1.024,0.664,2.118,0.664,3.274
		c0,1.153-0.223,2.242-0.664,3.263c-0.44,1.021-1.043,1.909-1.803,2.668c-0.758,0.759-1.648,1.358-2.669,1.799
		c-1.019,0.442-2.11,0.665-3.267,0.665c-1.158,0-2.248-0.223-3.269-0.665c-1.021-0.439-1.911-1.04-2.67-1.799
		s-1.36-1.647-1.799-2.668c-0.444-1.021-0.664-2.108-0.664-3.263c0-1.156,0.22-2.25,0.664-3.274c0.438-1.023,1.04-1.92,1.799-2.679
		c0.759-0.758,1.649-1.357,2.669-1.801c1.021-0.44,2.11-0.659,3.27-0.659c1.156,0,2.248,0.219,3.267,0.659
		c1.021,0.442,1.911,1.043,2.669,1.801C22.507,406.625,23.108,407.522,23.55,408.545z"/>
	<path fill="#607D8B" d="M33.792,462.122c-0.142-0.369-0.345-0.669-0.613-0.895l-6.74-6.404c-0.477,0.722-1.016,1.388-1.625,1.996
		c-0.711,0.711-1.496,1.328-2.356,1.855l6.903,6.563c0.224,0.246,0.509,0.435,0.853,0.564c0.345,0.127,0.693,0.191,1.05,0.191
		c0.363,0,0.717-0.072,1.056-0.218c0.338-0.146,0.642-0.355,0.911-0.635c0.258-0.271,0.449-0.571,0.578-0.903
		c0.129-0.333,0.194-0.671,0.194-1.015C34.001,462.862,33.931,462.491,33.792,462.122z"/>
	<path fill="#2196F3" d="M15.81,435.323c-1.143,0-2.243,0.147-3.308,0.448c-1.063,0.297-2.059,0.719-2.985,1.261
		c-0.924,0.547-1.771,1.196-2.527,1.954c-0.76,0.756-1.41,1.6-1.955,2.526c-0.543,0.927-0.965,1.918-1.264,2.979
		c-0.299,1.063-0.447,2.171-0.447,3.326c0,1.152,0.148,2.261,0.447,3.321c0.299,1.062,0.721,2.055,1.264,2.98
		c0.545,0.928,1.195,1.771,1.955,2.538c0.593,0.592,1.232,1.123,1.929,1.586c0.121,0.078,0.241,0.158,0.365,0.233
		c0.021,0.012,0.043,0.024,0.062,0.037c0.508,0.306,1.039,0.578,1.599,0.818c0.039,0.017,0.075,0.034,0.116,0.05
		c0.459,0.192,0.936,0.356,1.428,0.496c0.009,0.005,0.021,0.006,0.031,0.008c0.086,0.024,0.17,0.047,0.256,0.068
		c0.975,0.243,1.986,0.366,3.035,0.366c1.724,0,3.347-0.329,4.869-0.988c1.518-0.656,2.846-1.549,3.975-2.678
		c1.132-1.132,2.027-2.458,2.686-3.975c0.659-1.518,0.984-3.141,0.984-4.862s-0.325-3.347-0.984-4.876
		c-0.658-1.528-1.554-2.857-2.686-3.987c-0.328-0.325-0.674-0.632-1.032-0.922c-0.878-0.689-1.851-1.271-2.918-1.731
		C19.179,435.653,17.546,435.323,15.81,435.323z M23.87,444.407c0.461,1.068,0.691,2.207,0.691,3.412
		c0,1.201-0.23,2.336-0.691,3.397c-0.458,1.063-1.085,1.989-1.877,2.778c-0.789,0.79-1.716,1.416-2.779,1.874
		c-1.063,0.462-2.199,0.692-3.404,0.692c-1.207,0-2.34-0.229-3.403-0.692c-1.063-0.458-1.991-1.084-2.782-1.874
		c-0.791-0.789-1.417-1.717-1.874-2.778c-0.463-1.063-0.69-2.196-0.69-3.397c0-1.205,0.229-2.344,0.69-3.412
		c0.458-1.065,1.083-1.999,1.874-2.789c0.791-0.789,1.719-1.415,2.781-1.876c1.063-0.46,2.197-0.687,3.404-0.687
		c1.205,0,2.343,0.227,3.404,0.687c1.063,0.461,1.99,1.087,2.779,1.876C22.785,442.408,23.412,443.342,23.87,444.407z"/>
	<path fill="#607D8B" d="M33.792,498.122c-0.142-0.369-0.345-0.669-0.613-0.895l-6.74-6.404c-0.477,0.722-1.016,1.388-1.625,1.996
		c-0.711,0.711-1.496,1.328-2.356,1.855l6.903,6.563c0.224,0.246,0.509,0.435,0.853,0.564c0.345,0.127,0.693,0.191,1.05,0.191
		c0.363,0,0.717-0.072,1.056-0.218c0.338-0.146,0.642-0.355,0.911-0.635c0.258-0.271,0.449-0.571,0.578-0.903
		c0.129-0.333,0.194-0.671,0.194-1.015C34.001,498.862,33.931,498.491,33.792,498.122z"/>
	<path fill="#2196F3" d="M15.81,470.823c-1.188,0-2.334,0.153-3.44,0.466c-1.104,0.31-2.142,0.748-3.104,1.313
		c-0.961,0.568-1.842,1.244-2.629,2.032c-0.789,0.786-1.467,1.663-2.033,2.627c-0.565,0.964-1.004,1.995-1.313,3.101
		c-0.312,1.105-0.466,2.258-0.466,3.459c0,1.198,0.154,2.352,0.466,3.454c0.31,1.104,0.749,2.137,1.313,3.101
		c0.566,0.965,1.244,1.843,2.033,2.641c0.616,0.615,1.281,1.168,2.006,1.648c0.125,0.081,0.25,0.164,0.379,0.242
		c0.021,0.014,0.045,0.026,0.063,0.039c0.528,0.317,1.079,0.603,1.662,0.854c0.04,0.016,0.078,0.035,0.122,0.051
		c0.479,0.2,0.973,0.371,1.484,0.517c0.009,0.005,0.021,0.005,0.033,0.008c0.088,0.025,0.176,0.049,0.266,0.071
		c1.014,0.253,2.066,0.381,3.158,0.381c1.791,0,3.479-0.342,5.063-1.026c1.579-0.685,2.959-1.611,4.135-2.785
		c1.178-1.178,2.108-2.558,2.793-4.134c0.687-1.577,1.023-3.267,1.023-5.058s-0.338-3.479-1.023-5.07
		c-0.685-1.589-1.615-2.974-2.793-4.146c-0.342-0.34-0.701-0.657-1.074-0.959c-0.914-0.718-1.924-1.323-3.035-1.802
		C19.312,471.164,17.614,470.823,15.81,470.823z M24.192,480.272c0.479,1.111,0.72,2.295,0.72,3.549c0,1.249-0.239,2.43-0.72,3.533
		c-0.477,1.105-1.129,2.069-1.953,2.891c-0.82,0.821-1.785,1.474-2.891,1.949c-1.104,0.479-2.287,0.72-3.541,0.72
		s-2.434-0.239-3.539-0.72c-1.106-0.477-2.071-1.128-2.894-1.949c-0.823-0.82-1.473-1.784-1.948-2.891
		c-0.481-1.104-0.72-2.284-0.72-3.533c0-1.254,0.238-2.438,0.72-3.549c0.476-1.109,1.125-2.079,1.948-2.9
		c0.822-0.82,1.787-1.472,2.892-1.95c1.106-0.479,2.287-0.715,3.541-0.715s2.437,0.235,3.541,0.715
		c1.105,0.479,2.069,1.13,2.891,1.95C23.063,478.193,23.716,479.161,24.192,480.272z"/>
	<rect y="0" fill="#607D8B" fill-opacity="0" width="36" height="504"/>
</g>
</svg>
